<?xml version="1.0" encoding="utf-8"?>
<!-- Generator: Adobe Illustrator 27.4.1, SVG Export Plug-In . SVG Version: 6.00 Build 0)  -->
<svg version="1.1" id="Camada_1" xmlns="http://www.w3.org/2000/svg" xmlns:xlink="http://www.w3.org/1999/xlink" x="0px" y="0px"
	 viewBox="0 0 200 200" style="enable-background:new 0 0 200 200;" xml:space="preserve">
<style type="text/css">
	.st0{fill:#020203;}
</style>
<g>
	<g>
		<path class="st0" d="M98.1,50.3C96,62.2,85.9,69.1,73.7,69.1c-13.5,0-24.4-11-24.4-24.6c0-13.4,11-24.4,24.5-24.4
			c11.3,0,21,6.9,23.8,17.8h-4.3c-0.3-8-6.3-12.7-14.2-12.7c-12.5,0-24.9,12.3-24.9,24.9c0,8.3,6,14.1,14.4,14.1
			c9.2,0,18.6-5.3,22.5-13.9L98.1,50.3z"/>
		<path class="st0" d="M112,20.3l7.2,46.3l2.8,2.4h-13.6l2.9-2.4l-1.3-8.1h-7.6l-1.3,8.1l2.6,2.4h-8.4l2.6-2.4l6.7-43.9l-0.7-2.4
			H112z M103.1,55.3h6.6l-3.4-21.8L103.1,55.3z"/>
		<path class="st0" d="M133.4,65.7h4.6l3.1-6.9v10.1h-18.3l2.8-2.4V22.7l-2.8-2.4h13.6l-3.1,2.4V65.7z"/>
	</g>
	<g>
		<path class="st0" d="M92.7,105.7c-2.1,11.9-12.2,18.8-24.4,18.8c-13.5,0-24.4-11-24.4-24.6c0-13.4,11-24.4,24.5-24.4
			c11.3,0,20.9,6.9,23.8,17.8H88c-0.3-8-6.3-12.7-14.2-12.7c-12.5,0-24.9,12.3-24.9,24.9c0,8.3,6,14.1,14.4,14.1
			c9.2,0,18.5-5.3,22.5-13.9H92.7z"/>
		<path class="st0" d="M106.6,124.3H93.1l2.8-2.4V78l-2.8-2.4h13.5l-2.8,2.4v43.9L106.6,124.3z"/>
		<path class="st0" d="M107,100c0-13.5,11-24.6,24.6-24.6c13.8,0,24.5,11.1,24.5,24.4c0,13.5-10.9,24.7-24.5,24.7
			C117.7,124.5,107,113.5,107,100z M151.1,94.7c0-8.4-5.8-14.3-14.2-14.3c-12.4,0-24.8,12.4-24.8,24.9c0,8.5,5.8,14.2,14.2,14.2
			C138.7,119.5,151.1,107.3,151.1,94.7z"/>
	</g>
	<g>
		<path class="st0" d="M67.1,176.4h4.6l3.1-6.9v10.1H56.6l2.8-2.4v-43.9l-2.8-2.4h13.6l-3.1,2.4V176.4z"/>
		<path class="st0" d="M92.3,131l7.2,46.3l2.8,2.4H88.8l2.9-2.4l-1.3-8.1h-7.6l-1.3,8.1l2.6,2.4h-8.4l2.6-2.4l6.7-43.9l-0.7-2.4
			H92.3z M83.4,165.9H90l-3.4-21.8L83.4,165.9z"/>
		<path class="st0" d="M126.7,168.6v11.3c0,0-6.7,1.5-12.9-10.6v8.1l2.6,2.4h-12.9l2.6-2.4v-44l-2.9-2.2h10.7c7.2,0,13.3,8,13.3,18
			c0,9.4-5.6,17.1-12.3,17.8C118.1,169.6,122.4,171.4,126.7,168.6z M113.8,164.8c3.1,0,5.5-7.1,5.5-15.8c0-8.8-2.4-15.9-5.5-15.9
			V164.8z"/>
		<path class="st0" d="M142.1,179.6h-13.5l2.8-2.4v-43.9l-2.8-2.4h13.5l-2.8,2.4v43.9L142.1,179.6z"/>
	</g>
</g>
<g>
</g>
<g>
</g>
<g>
</g>
<g>
</g>
<g>
</g>
<g>
</g>
</svg>
